<svg width="1076" height="178" viewBox="0 0 1076 178" fill="none" xmlns="http://www.w3.org/2000/svg">
<g clip-path="url(#clip0_10_36)">
<rect width="265.965" height="177.31" fill="#F04A00"/>
<path d="M178.492 108.767C167.373 108.767 158.357 99.751 158.357 88.6325C158.357 77.5139 167.373 68.4975 178.492 68.4975C188.229 68.4975 196.355 75.4159 198.22 84.6055H238.764C236.69 53.1224 210.498 28.2275 178.492 28.2275C160.362 28.2275 144.101 36.2171 133.027 48.8659C132.161 47.8793 131.259 46.9088 130.317 45.9665C106.727 22.3763 68.4781 22.3763 44.892 45.9665C21.3059 69.5566 21.3019 107.805 44.892 131.391C67.5237 154.023 103.646 154.941 127.377 134.146L98.7088 105.477C90.8924 110.656 80.2531 109.802 73.3669 102.916C65.5062 95.0555 65.5062 82.302 73.3669 74.4413C81.2276 66.5806 93.9811 66.5806 101.842 74.4413C108.728 81.3275 109.582 91.9668 104.403 99.7832L133.059 128.439C133.059 128.439 133.067 128.451 133.071 128.455C144.141 141.072 160.386 149.041 178.492 149.041C210.498 149.041 236.69 124.147 238.764 92.6635H198.22C196.355 101.853 188.229 108.771 178.492 108.771V108.767Z" fill="white"/>
<path d="M330.038 117.655L352.04 59.2232H367.192L389.275 117.655H374.285L370.739 107.258H348.172L344.706 117.655H330.038ZM359.536 73.8109L351.96 96.0552H367.031L359.536 73.8109ZM405.282 74.2945V80.178C408.103 75.4228 413.906 73.3273 418.581 73.3273C429.783 73.3273 437.682 81.7899 437.682 95.9746C437.682 110.159 429.783 118.703 418.581 118.703C413.906 118.703 408.103 116.607 405.282 111.852V131.759H391.984V74.2945H405.282ZM414.229 83.6436C408.99 83.6436 404.638 87.0286 404.638 95.9746C404.638 104.921 408.99 108.386 414.229 108.386C419.467 108.386 423.9 104.034 423.9 95.9746C423.9 87.9151 419.467 83.6436 414.229 83.6436ZM456.089 74.2945V80.178C458.91 75.4228 464.713 73.3273 469.387 73.3273C480.59 73.3273 488.488 81.7899 488.488 95.9746C488.488 110.159 480.59 118.703 469.387 118.703C464.713 118.703 458.91 116.607 456.089 111.852V131.759H442.791V74.2945H456.089ZM465.035 83.6436C459.796 83.6436 455.444 87.0286 455.444 95.9746C455.444 104.921 459.796 108.386 465.035 108.386C470.274 108.386 474.707 104.034 474.707 95.9746C474.707 87.9151 470.274 83.6436 465.035 83.6436ZM506.896 59.2232V117.655H493.597V59.2232H506.896ZM514.81 74.2945H528.189V117.655H514.81V74.2945ZM514.81 59.2232H528.108V69.8617H514.81V59.2232ZM566.648 104.034H578.898C575.029 114.27 565.922 118.703 557.298 118.703C543.194 118.703 533.523 110.159 533.523 95.7329C533.523 81.8705 544.081 73.005 556.734 73.005C571.161 73.005 579.946 83.8853 579.059 99.3596H546.902C547.305 105.565 552.06 108.386 556.895 108.386C561.973 108.386 565.116 106.613 566.648 104.034ZM556.734 83.16C551.979 83.16 547.788 85.5778 547.063 91.3001H565.842C565.6 85.8196 561.812 83.16 556.734 83.16ZM614.755 59.2232H628.054V117.655H614.755V111.852C611.935 116.607 606.132 118.703 601.457 118.703C590.254 118.703 582.356 110.159 582.356 95.9746C582.356 81.7899 590.254 73.3273 601.457 73.3273C606.132 73.3273 611.935 75.4228 614.755 80.178V59.2232ZM605.809 83.6436C600.571 83.6436 596.138 87.9151 596.138 95.9746C596.138 104.034 600.571 108.386 605.809 108.386C611.048 108.386 615.4 104.921 615.4 95.9746C615.4 87.0286 611.048 83.6436 605.809 83.6436ZM692.226 95.894H705.766C703.59 109.434 692.71 118.703 677.961 118.703C659.746 118.703 648.705 107.097 648.705 88.3987C648.705 69.9423 660.069 58.256 678.364 58.256C692.952 58.256 703.429 67.7663 705.363 81.0645H691.823C690.292 73.0856 684.409 69.62 677.88 69.62C669.74 69.62 663.293 76.4706 663.293 88.3987C663.293 100.73 669.66 107.339 678.042 107.339C684.086 107.339 690.453 104.76 692.226 95.894ZM731.306 83.3212C726.067 83.3212 721.876 86.545 721.876 95.8134C721.876 104.921 725.906 108.386 731.306 108.386C736.706 108.386 740.735 104.921 740.735 95.8134C740.735 86.545 736.544 83.3212 731.306 83.3212ZM731.306 73.005C743.314 73.005 754.275 80.0974 754.275 95.8134C754.275 111.53 743.314 118.703 731.306 118.703C719.297 118.703 708.336 111.53 708.336 95.8134C708.336 80.0974 719.297 73.005 731.306 73.005ZM772.895 95.0881V117.655H759.597V74.2945H772.895V80.0168C774.829 76.7929 779.504 73.3273 786.032 73.3273C793.044 73.3273 796.912 75.8258 798.927 80.6615C802.231 75.8258 807.631 73.3273 813.757 73.3273C824.879 73.3273 828.344 79.8556 828.344 91.6225V117.655H815.046V94.9269C815.046 88.7211 814.724 83.6436 808.357 83.6436C802.876 83.6436 800.62 87.3509 800.62 95.0881V117.655H787.321V94.9269C787.321 88.7211 786.999 83.6436 780.632 83.6436C775.151 83.6436 772.895 87.3509 772.895 95.0881ZM848.73 74.2945V80.178C851.551 75.4228 857.354 73.3273 862.028 73.3273C873.231 73.3273 881.129 81.7899 881.129 95.9746C881.129 110.159 873.231 118.703 862.028 118.703C857.354 118.703 851.551 116.607 848.73 111.852V131.759H835.432V74.2945H848.73ZM857.676 83.6436C852.437 83.6436 848.085 87.0286 848.085 95.9746C848.085 104.921 852.437 108.386 857.676 108.386C862.915 108.386 867.347 104.034 867.347 95.9746C867.347 87.9151 862.915 83.6436 857.676 83.6436ZM913.077 117.655V111.61C910.417 115.882 907.032 118.703 900.342 118.703C888.817 118.703 885.352 112.174 885.352 100.407V74.2945H898.65V97.103C898.65 103.309 898.811 108.386 905.259 108.386C910.981 108.386 913.077 105.243 913.077 97.1836V74.2945H926.375V117.655H913.077ZM936.464 74.2945V62.447H949.762V74.2945H959.273V83.7241H949.762V103.148C949.762 107.258 951.052 108.064 955.485 108.064H959.273V117.655H950.81C940.091 117.655 936.464 115.559 936.464 105.485V83.7241H929.614V74.2945H936.464ZM995.257 104.034H1007.51C1003.64 114.27 994.532 118.703 985.908 118.703C971.804 118.703 962.133 110.159 962.133 95.7329C962.133 81.8705 972.691 73.005 985.344 73.005C999.771 73.005 1008.56 83.8853 1007.67 99.3596H975.511C975.914 105.565 980.67 108.386 985.505 108.386C990.583 108.386 993.726 106.613 995.257 104.034ZM985.344 83.16C980.589 83.16 976.398 85.5778 975.673 91.3001H994.451C994.21 85.8196 990.422 83.16 985.344 83.16Z" fill="#F04A00"/>
</g>
<rect x="2" y="-2" width="1072" height="173" transform="matrix(1 0 0 -1 0 173)" stroke="#F04A00" stroke-width="4"/>
<defs>
<clipPath id="clip0_10_36">
<rect width="1075.5" height="177.31" fill="white"/>
</clipPath>
</defs>
</svg>
