<svg width="350" height="61" viewBox="0 0 350 61" fill="none" xmlns="http://www.w3.org/2000/svg">
<g clip-path="url(#clip0_215_804)">
<path d="M83.7753 17.4601H94.6454L108.692 44.1602H99.818L97.1797 39.3949H81.0737L78.5168 44.1602H69.3256L83.7753 17.4601ZM94.3468 33.8331L89.1335 23.1848L83.9971 33.8331H94.3468Z" fill="#081E96"/>
<path d="M118.766 35.6433C118.847 37.4897 119.051 37.9286 120.02 38.2907C120.626 38.5305 121.834 38.6934 124.423 38.6934C133.922 38.6934 135.053 38.4129 135.053 36.2045C135.053 35.1229 134.528 34.3173 133.677 34.0368C133.083 33.8497 131.371 33.7426 128.541 33.7155H122.196C117.223 33.7155 115.164 33.4349 113.421 32.5524C111.48 31.5478 110.593 29.4253 110.593 25.7733C110.593 20.9583 111.969 18.9128 115.847 17.9941C118.028 17.4329 120.087 17.2338 125.989 17.2338C135.447 17.2338 137.633 17.4737 139.574 18.7182C141.434 19.9627 142.04 21.6054 142.04 25.6149H134.035C134.035 23.2889 133.225 22.9675 127.93 22.9675C125.301 22.9675 122.88 23.049 121.585 23.1259C119.404 23.2843 118.676 23.85 118.676 25.3706C118.676 26.4929 119.241 27.2169 120.413 27.4975C120.898 27.6197 121.06 27.6559 123.73 27.6966H130.274C131.003 27.6966 134.641 27.8188 136.017 27.8958C141.153 28.1356 143.172 30.3847 143.172 35.7564C143.172 40.6892 141.715 42.8568 137.755 43.6986C135.732 44.1421 131.731 44.3819 125.871 44.3819C116.53 44.3819 115.567 44.1828 113.182 42.979C111.525 42.178 110.675 40.1325 110.675 36.9647C110.675 36.7249 110.675 36.2045 110.715 35.6388H118.761L118.766 35.6433Z" fill="#081E96"/>
<path d="M157.662 24.0672H146.362V17.4601H177.131V24.0672H165.831V44.1602H157.662V24.0672Z" fill="#081E96"/>
<path d="M181.86 17.4601H203.817C208.546 17.4601 210.632 17.8583 212.153 19.1436C213.714 20.3835 214.438 22.6643 214.438 26.2711C214.438 31.2355 213.235 33.195 209.831 33.9553C213.158 34.5165 214.158 35.9148 214.081 39.9606V44.1647H205.826V40.843C205.786 37.9603 204.985 37.3584 201.337 37.4399H189.96V44.1647H181.864V17.4646L181.86 17.4601ZM201.572 30.9097C205.501 30.9097 206.261 30.43 206.261 27.7871C206.261 26.0675 206.102 25.3434 205.577 24.7868C204.976 24.1442 204.297 24.0265 201.849 24.0265H189.951V30.9097H201.572Z" fill="#081E96"/>
<path d="M272.717 17.4601L287.714 37.7567L287.515 17.4601H295.154V44.1602H282.18L267.418 24.0672L267.617 44.1602H259.856V17.4601H272.717Z" fill="#081E96"/>
<path d="M302.173 17.4601H310.319V44.1602H302.173V17.4601Z" fill="#081E96"/>
<path d="M324.587 35.6433C324.669 37.4897 324.873 37.9286 325.841 38.2907C326.447 38.5305 327.656 38.6934 330.244 38.6934C339.743 38.6934 340.875 38.4129 340.875 36.2045C340.875 35.1229 340.35 34.3173 339.499 34.0368C338.904 33.8497 337.192 33.7426 334.362 33.7155H328.018C323.044 33.7155 320.985 33.4349 319.243 32.5524C317.301 31.5478 316.414 29.4253 316.414 25.7733C316.414 20.9583 317.79 18.9128 321.669 17.9941C323.85 17.4329 325.909 17.2338 331.81 17.2338C341.268 17.2338 343.454 17.4737 345.395 18.7182C347.255 19.9627 347.862 21.6054 347.862 25.6149H339.856C339.856 23.2889 339.046 22.9675 333.751 22.9675C331.122 22.9675 328.701 23.049 327.407 23.1259C325.226 23.2843 324.497 23.85 324.497 25.3706C324.497 26.4929 325.063 27.2169 326.235 27.4975C326.719 27.6197 326.882 27.6559 329.552 27.6966H336.096C336.824 27.6966 340.463 27.8188 341.838 27.8958C346.975 28.1356 348.993 30.3847 348.993 35.7564C348.993 40.6892 347.536 42.8568 343.576 43.6986C341.553 44.1421 337.553 44.3819 331.692 44.3819C322.352 44.3819 321.388 44.1828 319.003 42.979C317.347 42.178 316.496 40.1325 316.496 36.9647C316.496 36.7249 316.496 36.2045 316.537 35.6388H324.583L324.587 35.6433Z" fill="#081E96"/>
<path d="M231.753 17.4601H242.623L256.67 44.1602H247.795L245.157 39.3949H229.051L226.494 44.1602H217.303L231.753 17.4601ZM242.324 33.8331L237.111 23.1848L231.974 33.8331H242.324Z" fill="#081E96"/>
<path fill-rule="evenodd" clip-rule="evenodd" d="M28.832 1.16852H22.4964L22.4874 7.03801C22.1072 27.7012 13.622 46.3731 -0.0357485 59.9042C-0.284648 60.1485 -0.0131213 60.5604 0.308185 60.4201C5.86995 58.0487 11.9567 56.3019 17.6406 55.2792C19.5277 55.062 21.7588 54.2112 23.0304 52.0073C29.4973 40.7887 28.7687 16.0301 28.832 13.704V1.16852Z" fill="#081E96"/>
<path fill-rule="evenodd" clip-rule="evenodd" d="M31.9998 1.16852H38.3354L38.3445 7.03801C38.7201 27.6966 47.2053 46.3686 60.8631 59.9042C61.112 60.1485 60.8404 60.5604 60.5191 60.4201C54.9574 58.0487 48.8707 56.3019 43.1867 55.2792C41.2996 55.062 39.0686 54.2112 37.7969 52.0073C31.3301 40.7887 32.0587 16.0301 31.9953 13.704C31.9953 10.5814 31.9953 4.27297 31.9953 1.17304L31.9998 1.16852Z" fill="#081E96"/>
</g>
<defs>
<clipPath id="clip0_215_804">
<rect width="348.911" height="59.2832" fill="white" transform="translate(0.261719 0.946411)"/>
</clipPath>
</defs>
</svg>
